<svg xmlns="http://www.w3.org/2000/svg" viewBox="0 0 512 512">
  <rect width="512" height="512" rx="96" fill="#0d9488"/>
  <g fill="white">
    <!-- Recycling symbol simplified -->
    <path d="M256 80c-97.2 0-176 78.8-176 176s78.8 176 176 176 176-78.8 176-176S353.2 80 256 80zm0 320c-79.5 0-144-64.5-144-144s64.5-144 144-144 144 64.5 144 144-64.5 144-144 144z"/>
    <!-- Leaf/eco symbol -->
    <path d="M320 192c-35.3 0-64 28.7-64 64v64h64c35.3 0 64-28.7 64-64s-28.7-64-64-64zm-64 128v-64c0-35.3-28.7-64-64-64s-64 28.7-64 64 28.7 64 64 64h64z"/>
    <!-- Center dot -->
    <circle cx="256" cy="256" r="24"/>
  </g>
</svg>
